<svg width="137" height="117" viewBox="0 0 137 117" fill="none" xmlns="http://www.w3.org/2000/svg">
<path d="M27.8126 74.9904C40.2352 74.9904 69.173 76.0098 81.5956 76.5764C84.2468 76.6821 86.8676 77.1424 89.375 77.9271C93.873 79.3297 97.9861 81.8558 101.23 85.2034C106.288 90.3752 109.142 97.5535 108.995 104.69C108.961 106.469 108.929 108.248 108.894 110.028C108.85 112.352 108.803 114.676 108.754 117H104.129C104.08 114.676 104.033 112.352 103.989 110.028C103.954 108.248 103.922 106.469 103.888 104.69C103.789 98.9005 101.263 93.2543 97.0992 89.3564C94.4283 86.8312 91.1148 85.0223 87.5916 84.1394C85.6275 83.6446 83.5965 83.4539 81.5956 83.5606C69.173 84.1271 40.2352 85.1465 27.8126 85.1466C22.6372 85.1377 17.4622 87.005 13.4274 90.4798C9.40514 93.9176 6.5357 98.9669 5.78902 104.69C5.58124 106.469 5.35865 108.248 5.1223 110.028C4.81358 112.352 4.48058 114.676 4.12311 117H1.81036C1.45289 114.676 1.11989 112.352 0.811175 110.028C0.574823 108.248 0.352227 106.469 0.14445 104.69C-0.650487 97.4869 1.86058 89.7111 7.06013 84.079C12.2256 78.3744 19.9831 74.9543 27.8126 74.9904Z" fill="black"/>
<path d="M76.3176 35.9909C76.7223 33.6681 76.7623 31.3319 76.4524 29.0717C75.2749 19.9471 68.1388 12.5774 59.8781 10.9391C49.5183 8.5175 38.5754 15.3923 36.1623 25.2524C33.3123 34.9956 39.3451 46.4101 49.5301 49.4827C57.5048 52.1861 67.377 49.3648 72.968 42.0503C74.3687 40.2476 75.5044 38.2044 76.3176 35.9909ZM81.344 37.335C80.8029 40.1727 79.7966 42.9579 78.3466 45.5348C72.6737 55.9908 59.2682 62.1436 46.9487 59.0978C31.2636 55.9206 20.3306 38.0073 24.9926 22.2653C28.8416 6.306 47.2841 -3.75163 62.4595 1.32404C74.6545 4.83394 83.1815 16.852 82.8561 28.7381C82.8208 31.6933 82.297 34.6076 81.344 37.335Z" fill="black"/>
<path d="M82 56.3697C82.9166 56.1763 83.8332 55.9988 84.7498 55.8375C89.3389 55.0303 93.9282 54.6268 98.5173 54.6268C104.527 54.6268 110.536 54.9562 116.545 55.2077C122.447 55.4547 128.349 55.8544 134.25 56.2086C135.167 56.2636 136.083 56.3176 137 56.3697V60.6303C136.083 60.6824 135.167 60.7364 134.25 60.7914C128.349 61.1456 122.447 61.5453 116.545 61.7923C110.536 62.0438 104.527 62.3732 98.5173 62.3732C93.9282 62.3732 89.3389 61.9697 84.7498 61.1625C83.8332 61.0012 82.9166 60.8237 82 60.6303V56.3697Z" fill="black"/>
<path d="M111.63 31C111.874 31.9166 112.097 32.8332 112.299 33.7498C113.274 38.1695 113.761 42.5893 113.761 47.0089C113.761 53.5073 113.144 60.006 112.792 66.5044C112.49 72.0863 112.135 77.6683 111.796 83.2502C111.74 84.1668 111.685 85.0834 111.63 86H107.37C107.315 85.0834 107.26 84.1668 107.204 83.2502C106.865 77.6683 106.51 72.0863 106.208 66.5044C105.856 60.006 105.239 53.5073 105.239 47.0089C105.239 42.5893 105.726 38.1695 106.701 33.7498C106.903 32.8332 107.126 31.9166 107.37 31H111.63Z" fill="black"/>
</svg>
