<svg width="142" height="142" viewBox="0 0 142 142" fill="none" xmlns="http://www.w3.org/2000/svg">
<path d="M0 65.5C2.36656 65.0005 4.73305 64.5423 7.09961 64.126C18.9477 62.0418 30.7964 61 42.6445 61C58.1595 61 73.6745 61.8507 89.1895 62.5C104.426 63.1377 119.664 64.1695 134.9 65.084C137.267 65.226 139.633 65.3656 142 65.5V76.5C139.633 76.6344 137.267 76.774 134.9 76.916C119.664 77.8305 104.426 78.8623 89.1895 79.5C73.6745 80.1493 58.1595 81 42.6445 81C30.7964 81 18.9477 79.9582 7.09961 77.874C4.73305 77.4577 2.36656 76.9995 4.80825e-07 76.5L0 65.5Z" fill="black"/>
<path d="M76.5 0C77.1298 2.36656 77.7059 4.73305 78.2275 7.09961C80.7427 18.5103 82 29.9214 82 41.332C82 58.1099 80.4091 74.8882 79.5 91.666C78.7192 106.077 77.8041 120.489 76.9277 134.9C76.7838 137.267 76.6411 139.633 76.5 142H65.5C65.359 139.633 65.2162 137.267 65.0723 134.9C64.196 120.489 63.2809 106.077 62.5 91.666C61.5909 74.8882 60 58.1099 60 41.332C60 29.9214 61.2573 18.5103 63.7725 7.09961C64.2941 4.73305 64.8702 2.36656 65.5 4.80825e-07L76.5 0Z" fill="black"/>
</svg>
