<svg width="124" height="142" viewBox="0 0 124 142" fill="none" xmlns="http://www.w3.org/2000/svg">
<path d="M90 0C90.4013 0 90.7904 0.158612 91.0967 0.441406C91.4033 0.724243 91.5965 1.10782 91.6875 1.50781C91.8207 2.09948 91.9495 2.69154 92.0732 3.2832C93.6912 11.0182 94.5 18.7533 94.5 26.4883C94.5 29.403 93.8552 32.3177 92.5654 35.2324C92.3036 35.8241 92.0151 36.4162 91.7002 37.0078C91.513 37.3543 91.2879 37.6866 90.9922 37.9316C90.6963 38.1767 90.353 38.3145 90 38.3145C89.647 38.3145 89.3037 38.1767 89.0078 37.9316C88.7121 37.6866 88.487 37.3543 88.2998 37.0078C87.9849 36.4162 87.6964 35.8241 87.4346 35.2324C86.1448 32.3177 85.5 29.403 85.5 26.4883C85.5 18.7533 86.3088 11.0182 87.9268 3.2832C88.0505 2.69154 88.1793 2.09948 88.3125 1.50781C88.4035 1.10782 88.5967 0.724243 88.9033 0.441406C89.2096 0.158612 89.5987 0 90 0Z" fill="black"/>
<path d="M34 0.5C34.4013 0.5 34.7904 0.658612 35.0967 0.941406C35.4033 1.22424 35.5965 1.60782 35.6875 2.00781C35.8207 2.59948 35.9495 3.19154 36.0732 3.7832C37.6912 11.5182 38.5 19.2533 38.5 26.9883C38.5 29.903 37.8552 32.8177 36.5654 35.7324C36.3036 36.3241 36.0151 36.9162 35.7002 37.5078C35.513 37.8543 35.2879 38.1866 34.9922 38.4316C34.6963 38.6767 34.353 38.8145 34 38.8145C33.647 38.8145 33.3037 38.6767 33.0078 38.4316C32.7121 38.1866 32.487 37.8543 32.2998 37.5078C31.9849 36.9162 31.6964 36.3241 31.4346 35.7324C30.1448 32.8177 29.5 29.903 29.5 26.9883C29.5 19.2533 30.3088 11.5182 31.9268 3.7832C32.0505 3.19154 32.1793 2.59948 32.3125 2.00781C32.4035 1.60782 32.5967 1.22424 32.9033 0.941406C33.2096 0.658612 33.5987 0.5 34 0.5Z" fill="black"/>
<path d="M47.2633 55.1439C70.5163 55.7157 93.759 56.7103 116.991 58.1275C119.023 58.2514 121.055 58.3785 123.086 58.5089L122.914 65.5068C120.879 65.5371 118.843 65.5642 116.808 65.5881C93.534 65.8617 70.2705 65.7127 47.0174 65.1409C33.6707 64.8127 20.3328 64.1078 7.00458 63.0268C4.97417 62.8621 2.94394 62.6889 0.913961 62.5068L1.08604 55.5089C3.12252 55.4267 5.1588 55.3535 7.19486 55.2889C20.5601 54.8642 33.9166 54.8157 47.2633 55.1439Z" fill="black"/>
<path d="M110.223 142.008H13.7773C6.16835 142.008 0.000115905 135.79 0 128.119L8.49947e-06 30.8965C0.000123693 23.2261 6.16836 17.008 13.7774 17.0078L110.223 17.0078C117.832 17.0081 124 23.2261 124 30.8965L124 128.119C124 135.79 117.832 142.008 110.223 142.008ZM110.223 138.633C115.794 138.397 120.104 133.158 119.642 128.119C119.613 127.458 119.585 126.797 119.557 126.137C118.201 94.3902 117.148 62.6431 116.397 30.8965C116.299 27.518 113.209 24.8384 110.223 25.0772C78.0745 25.6975 45.9255 26.0078 13.7774 26.0078C11.2856 25.9308 8.9184 28.2383 8.95313 30.8965C8.81223 63.3039 8.35623 95.7117 7.58496 128.119C7.31367 131.478 10.1953 134.864 13.7773 134.987C38.0213 135.67 62.2659 136.529 86.5098 137.564C94.4139 137.902 102.319 138.258 110.223 138.633Z" fill="black"/>
<path d="M39 91.8774C39 93.6063 38.1517 95.0078 37.1053 95.0078H16.8947C15.8483 95.0078 15 93.6063 15 91.8774L15 74.1383C15 72.4094 15.8483 71.0078 16.8947 71.0078H37.1053C38.119 71.0078 38.9468 72.3232 38.9975 73.9772L39 74.1383L39 91.8774ZM16.8947 75.2979C16.9576 75.3103 17.0211 75.305 17.0835 75.2857C17.0206 75.2894 16.9577 75.2942 16.8947 75.2979ZM37.9342 74.1383C37.8426 73.399 37.391 73.0523 37.1053 73.2232C36.8674 73.258 36.6295 73.292 36.3917 73.3261C30.1639 74.2177 23.936 74.8549 17.7083 75.2449C17.7883 80.2792 17.8317 85.3135 17.839 90.3478C24.249 90.4562 30.6589 90.827 37.0689 91.4667C37.225 87.7229 37.4005 83.9789 37.5968 80.2351C37.7034 78.2029 37.8158 76.1704 37.9342 74.1383ZM37.067 91.5095C36.97 91.629 36.9866 91.8385 37.051 91.8774C37.056 91.7547 37.0619 91.6322 37.067 91.5095Z" fill="black" fill-opacity="0.5"/>
<path d="M105.87 71.0078C107.598 71.0078 109 71.8561 109 72.9026L109 93.1131C109 94.1595 107.598 95.0078 105.87 95.0078H88.1304C86.4016 95.0078 85 94.1595 85 93.1131V72.9026C85 71.8888 86.3154 71.061 87.9694 71.0103L88.1304 71.0078L105.87 71.0078ZM89.2901 93.1131C89.3024 93.0502 89.2972 92.9867 89.2778 92.9243C89.2816 92.9873 89.2864 93.0502 89.2901 93.1131ZM88.1304 72.0736C87.3912 72.1652 87.0445 72.6168 87.2154 72.9026C87.2501 73.1404 87.2842 73.3783 87.3183 73.6162C88.2098 79.8439 88.8471 86.0718 89.2371 92.2996C94.2714 92.2195 99.3057 92.1762 104.34 92.1688C104.448 85.7589 104.819 79.3489 105.459 72.9389C101.715 72.7828 97.9711 72.6073 94.2272 72.411C92.1951 72.3044 90.1626 72.192 88.1304 72.0736ZM105.502 72.9408C105.621 73.0378 105.831 73.0212 105.87 72.9568C105.747 72.9518 105.624 72.9459 105.502 72.9408Z" fill="black" fill-opacity="0.5"/>
<path d="M18.1304 128.008C16.4015 128.008 15 127.16 15 126.113L15 105.903C15 104.856 16.4015 104.008 18.1304 104.008L35.8696 104.008C37.5984 104.008 39 104.856 39 105.903V126.113C39 127.127 37.6846 127.955 36.0306 128.005L35.8696 128.008H18.1304ZM34.7099 105.903C34.6976 105.965 34.7028 106.029 34.7222 106.091C34.7184 106.028 34.7136 105.965 34.7099 105.903ZM35.8696 126.942C36.6088 126.85 36.9555 126.399 36.7846 126.113C36.7499 125.875 36.7158 125.637 36.6817 125.399C35.7902 119.172 35.1529 112.944 34.7629 106.716C29.7286 106.796 24.6943 106.839 19.66 106.847C19.5517 113.257 19.1808 119.667 18.5411 126.077C22.285 126.233 26.0289 126.408 29.7728 126.605C31.8049 126.711 33.8374 126.824 35.8696 126.942ZM18.4983 126.075C18.3788 125.978 18.1693 125.994 18.1304 126.059C18.2531 126.064 18.3756 126.07 18.4983 126.075Z" fill="black" fill-opacity="0.5"/>
<path d="M50 107.138C50 105.409 50.8483 104.008 51.8947 104.008L72.1053 104.008C73.1517 104.008 74 105.409 74 107.138L74 124.877C74 126.606 73.1517 128.008 72.1053 128.008H51.8947C50.881 128.008 50.0532 126.692 50.0025 125.038L50 124.877L50 107.138ZM72.1053 123.718C72.0424 123.705 71.9789 123.711 71.9165 123.73C71.9794 123.726 72.0423 123.721 72.1053 123.718ZM51.0658 124.877C51.1574 125.617 51.609 125.963 51.8947 125.792C52.1326 125.758 52.3705 125.724 52.6083 125.69C58.8361 124.798 65.064 124.161 71.2917 123.771C71.2117 118.736 71.1683 113.702 71.161 108.668C64.751 108.559 58.3411 108.189 51.9311 107.549C51.775 111.293 51.5995 115.037 51.4032 118.781C51.2966 120.813 51.1842 122.845 51.0658 124.877ZM51.933 107.506C52.03 107.387 52.0134 107.177 51.949 107.138C51.944 107.261 51.9381 107.383 51.933 107.506Z" fill="black" fill-opacity="0.5"/>
</svg>
