<svg width="141" height="129" viewBox="0 0 141 129" fill="none" xmlns="http://www.w3.org/2000/svg">
<path d="M30.0643 81.221C43.4927 81.221 56.9211 82.3251 70.3495 82.9388C73.2153 83.0533 76.0483 83.5518 78.7587 84.4017C83.6209 85.9208 88.0669 88.6568 91.5731 92.2825C97.0405 97.8841 100.126 105.659 99.9667 113.388C99.9308 115.315 99.8953 117.242 99.8583 119.169C99.8099 121.686 99.7596 124.204 99.7069 126.721H94.7069C94.6543 124.204 94.604 121.686 94.5556 119.169C94.5185 117.242 94.4831 115.315 94.4472 113.388C94.34 107.118 91.6092 101.002 87.1083 96.7806C84.2212 94.0456 80.6394 92.0864 76.8309 91.1302C74.7078 90.5943 72.5124 90.3878 70.3495 90.5032C56.9211 91.1169 43.4927 92.221 30.0643 92.221C24.4699 92.2114 18.876 94.2339 14.5145 97.9974C10.1666 101.721 7.06484 107.19 6.25771 113.388C6.03311 115.315 5.79249 117.242 5.537 119.169C5.2033 121.686 4.84333 124.204 4.45693 126.721H1.95693C1.57052 124.204 1.21056 121.686 0.876848 119.169C0.621361 117.242 0.380744 115.315 0.156145 113.388C-0.703152 105.587 2.01121 97.1648 7.63173 91.0648C13.2154 84.8862 21.6009 81.182 30.0643 81.221Z" fill="black"/>
<path d="M73.5703 38.9812C74.0078 36.4654 74.051 33.9351 73.716 31.4872C72.4432 21.6044 64.7293 13.6225 55.7998 11.8479C44.6013 9.22518 32.7724 16.6712 30.164 27.3505C27.0832 37.9032 33.6044 50.2662 44.614 53.594C53.2344 56.522 63.9058 53.4663 69.9495 45.544C71.4635 43.5916 72.6913 41.3787 73.5703 38.9812ZM79.0036 40.437C78.4187 43.5104 77.3309 46.5271 75.7635 49.3181C69.6313 60.6428 55.1405 67.3069 41.8236 64.0079C24.8686 60.5668 13.0504 41.1651 18.0899 24.1153C22.2505 6.82993 42.1862 -4.06334 58.5902 1.43405C71.7725 5.23557 80.9898 18.2522 80.6381 31.1258C80.6 34.3266 80.0338 37.483 79.0036 40.437Z" fill="black"/>
<path d="M104.348 82.553C109.094 82.106 113.674 82.4175 118.151 83.3782C118.184 83.3854 118.282 83.4079 118.314 83.4163C124.93 85.099 130.899 89.1763 134.836 94.6663C138.797 100.125 140.692 106.933 140.19 113.433C139.912 116.777 139.594 120.121 139.235 123.465C139.119 124.55 138.999 125.636 138.874 126.721C138.826 127.138 138.643 127.538 138.335 127.833C138.027 128.128 137.624 128.294 137.207 128.294C136.789 128.294 136.386 128.128 136.079 127.833C135.771 127.538 135.588 127.138 135.54 126.721C135.415 125.636 135.295 124.55 135.179 123.465C134.82 120.121 134.502 116.777 134.223 113.435C133.738 108.25 131.627 103.421 128.396 99.6751C125.175 95.9217 120.849 93.2509 116.14 92.0364C111.856 91.1064 107.627 89.6421 103.517 87.7679C102.513 87.3156 101.522 86.8404 100.541 86.3792C100.18 86.2169 99.8423 85.9824 99.6083 85.6595C99.3741 85.3367 99.263 84.9563 99.3006 84.5804C99.3382 84.2045 99.5229 83.8543 99.8163 83.5843C100.11 83.314 100.487 83.1505 100.873 83.0628C102.055 82.8222 103.198 82.6646 104.348 82.553Z" fill="black"/>
<path d="M97.6757 4.90557C98.9819 4.88826 100.303 4.99749 101.612 5.23369C106.841 6.1568 111.82 9.20215 115.142 13.554C119.355 19.0025 121.509 25.9391 121.27 32.721C121.064 39.5132 118.502 46.1064 114.263 51.2103C110.895 55.2957 106.249 58.1558 101.382 59.6429C100.159 60.0196 98.9203 60.3155 97.6757 60.5364C97.2229 60.6136 96.7399 60.4993 96.3387 60.2405C95.9373 59.9804 95.6508 59.5968 95.536 59.1526C95.4212 58.7084 95.4865 58.2338 95.7118 57.8118C95.9374 57.3911 96.3046 57.0573 96.7382 56.9056C97.7723 56.5377 98.772 56.0925 99.7294 55.5823C103.561 53.5414 106.632 50.5066 108.978 47.1458C111.955 42.908 113.374 37.7304 113.143 32.721C112.929 27.7012 111.101 22.8671 108.098 18.9739C105.706 15.8799 102.97 13.0301 99.4999 10.4251C98.6289 9.77435 97.7108 9.14248 96.7382 8.53643C96.3537 8.30601 96.0097 7.98877 95.7997 7.58623C95.5896 7.18397 95.5294 6.73446 95.6376 6.31572C95.7458 5.897 96.0158 5.53273 96.3944 5.28252C96.7731 5.03203 97.2277 4.92095 97.6757 4.90557Z" fill="black"/>
</svg>
