<svg width="140" height="140" viewBox="0 0 140 140" fill="none" xmlns="http://www.w3.org/2000/svg">
<path d="M71.1528 0.489151C75.7581 -0.14456 80.5782 -0.171558 85.4346 0.461003C94.0199 1.56631 102.714 4.78992 110.481 9.91607C144.062 29.8984 151.806 87.9208 118.967 118.838C118.825 118.981 118.681 119.123 118.538 119.265C87.5968 151.758 30.0288 143.958 10.0218 110.492C4.67454 102.415 1.37714 93.3276 0.362996 84.3918C-0.197946 79.5213 -0.100721 74.6974 0.598903 70.0966C2.80157 74.1955 5.34761 77.9087 8.12919 81.2084C13.2364 87.2698 19.1165 91.9093 25.2191 95.2771C49.4729 108.348 73.7075 101.573 87.5336 87.7696C87.6009 87.7032 87.6676 87.6354 87.7347 87.5685C101.721 73.7905 108.727 49.3685 95.584 24.8305C92.3353 18.9117 87.9012 13.1995 82.1399 8.18831C78.8853 5.35601 75.2143 2.75337 71.1528 0.489151ZM105.981 19.1232L106.039 19.2304C119.769 42.3621 117.217 76.3862 96.4043 96.3695L96.4593 96.3132C96.4113 96.361 96.3477 96.4267 96.2663 96.5075C96.2485 96.5252 96.2294 96.5433 96.21 96.5625L95.3146 97.4579C75.2354 117.062 42.175 119.203 19.5868 105.727L19.4836 105.67C19.1859 105.502 18.8914 105.326 18.5963 105.153L18.6941 105.307C31.3408 128.506 66.467 138.726 94.0975 128.775C101.836 126.041 109.054 121.772 115.184 116.07L115.285 115.967C115.409 115.828 115.535 115.687 115.663 115.542L115.769 115.44C121.373 109.483 125.618 102.477 128.398 94.9567C138.782 67.3989 128.915 31.9828 105.888 18.961C105.918 19.0153 105.951 19.0688 105.981 19.1232Z" fill="black"/>
</svg>
