<svg width="140" height="140" viewBox="0 0 140 140" fill="none" xmlns="http://www.w3.org/2000/svg">
<path d="M20.5025 20.5025C47.8392 -6.83418 92.16 -6.83418 119.497 20.5025C146.833 47.8392 146.833 92.16 119.497 119.497C92.16 146.833 47.8392 146.833 20.5025 119.497C-6.83418 92.16 -6.83418 47.8392 20.5025 20.5025ZM112.337 27.6617C89.3591 5.57937 50.2465 6.74475 28.9879 28.9879C6.74475 50.2465 5.57937 89.3591 27.6617 112.337C44.501 131.129 74.2759 137.981 99.0953 127.109C105.275 124.466 111.098 120.828 116.315 116.315C120.828 111.098 124.466 105.275 127.109 99.0953C137.981 74.2759 131.129 44.501 112.337 27.6617Z" fill="black"/>
<path d="M58.823 58.8231L107.557 33.2176L81.4265 81.4266L33.2175 107.557L58.823 58.8231ZM50.573 91.0672C56.7973 88.0496 63.0406 85.0665 69.3044 82.1219C72.2135 80.7544 75.1281 79.3975 78.0457 78.0457C79.3974 75.1281 80.7543 72.2135 82.1218 69.3045C85.0665 63.0407 88.0495 56.7973 91.0671 50.5731C82.333 55.3733 73.5584 60.0966 64.7439 64.744C60.0965 73.5584 55.3733 82.333 50.573 91.0672Z" fill="black"/>
<path d="M75.2178 20.2178C75.2178 22.9793 72.9792 25.2178 70.2178 25.2178C67.4564 25.2178 65.2178 22.9793 65.2178 20.2178C65.2178 17.4564 67.4564 15.2178 70.2178 15.2178C72.9792 15.2178 75.2178 17.4564 75.2178 20.2178Z" fill="black"/>
<path d="M75.2178 125.218C75.2178 127.979 72.9792 130.218 70.2178 130.218C67.4564 130.218 65.2178 127.979 65.2178 125.218C65.2178 122.456 67.4564 120.218 70.2178 120.218C72.9792 120.218 75.2178 122.456 75.2178 125.218Z" fill="black"/>
<path d="M125.218 77.2178C122.456 77.2178 120.218 74.9793 120.218 72.2178C120.218 69.4564 122.456 67.2178 125.218 67.2178C127.979 67.2178 130.218 69.4564 130.218 72.2178C130.218 74.9793 127.979 77.2178 125.218 77.2178Z" fill="black"/>
<path d="M18.2178 77.2178C15.4563 77.2178 13.2178 74.9793 13.2178 72.2178C13.2178 69.4564 15.4563 67.2178 18.2178 67.2178C20.9792 67.2178 23.2178 69.4564 23.2178 72.2178C23.2178 74.9793 20.9792 77.2178 18.2178 77.2178Z" fill="black"/>
</svg>
