<svg width="135" height="117" viewBox="0 0 135 117" fill="none" xmlns="http://www.w3.org/2000/svg">
<path d="M27.8126 74.9904C40.2352 74.9904 69.173 76.0098 81.5956 76.5764C84.2468 76.6821 86.8676 77.1424 89.375 77.9271C93.873 79.3297 97.9861 81.8558 101.23 85.2034C106.288 90.3752 109.142 97.5535 108.995 104.69C108.961 106.469 108.929 108.248 108.894 110.028C108.85 112.352 108.803 114.676 108.754 117H104.129C104.08 114.676 104.033 112.352 103.989 110.028C103.954 108.248 103.922 106.469 103.888 104.69C103.789 98.9005 101.263 93.2543 97.0992 89.3564C94.4283 86.8312 91.1148 85.0223 87.5916 84.1394C85.6275 83.6446 83.5965 83.4539 81.5956 83.5606C69.173 84.1271 40.2352 85.1465 27.8126 85.1466C22.6372 85.1377 17.4622 87.005 13.4274 90.4798C9.40514 93.9176 6.5357 98.9669 5.78902 104.69C5.58124 106.469 5.35865 108.248 5.1223 110.028C4.81358 112.352 4.48058 114.676 4.12311 117H1.81036C1.45289 114.676 1.11989 112.352 0.811175 110.028C0.574823 108.248 0.352227 106.469 0.14445 104.69C-0.650487 97.4869 1.86058 89.7111 7.06013 84.079C12.2256 78.3744 19.9831 74.9543 27.8126 74.9904Z" fill="black"/>
<path d="M76.3176 35.9909C76.7223 33.6681 76.7623 31.3319 76.4524 29.0717C75.2749 19.9471 68.1388 12.5774 59.8781 10.9391C49.5183 8.5175 38.5754 15.3923 36.1623 25.2524C33.3123 34.9956 39.3451 46.4101 49.5301 49.4827C57.5048 52.1861 67.377 49.3648 72.968 42.0503C74.3687 40.2476 75.5044 38.2044 76.3176 35.9909ZM81.344 37.335C80.8029 40.1727 79.7966 42.9579 78.3466 45.5348C72.6737 55.9908 59.2682 62.1436 46.9487 59.0978C31.2636 55.9206 20.3306 38.0073 24.9926 22.2653C28.8416 6.306 47.2841 -3.75163 62.4595 1.32404C74.6545 4.83394 83.1815 16.852 82.8561 28.7381C82.8208 31.6933 82.297 34.6076 81.344 37.335Z" fill="black"/>
<path d="M135.01 28.7549C134.491 30.1373 133.935 31.5772 133.396 32.9639C128.475 45.5994 123.002 57.9395 116.964 70.0156C115.341 73.2616 113.658 76.5262 111.955 79.7275C111.414 81.0221 109.596 81.9269 108.679 81.8828C108.203 81.9111 107.806 81.8426 107.602 81.7979C107.472 81.7695 107.358 81.7383 107.258 81.707C106.859 81.5799 106.633 81.4591 106.442 81.3564C106.226 81.2347 106.194 81.2091 106.099 81.1475C106.016 81.0927 105.941 81.0405 105.87 80.9893C105.72 80.8794 105.628 80.8049 105.54 80.7334C105.451 80.6606 105.364 80.587 105.276 80.5117C104.979 80.2533 104.703 79.9922 104.465 79.7617C103.963 79.2754 103.529 78.8281 103.07 78.3486C102.189 77.423 101.342 76.4928 100.515 75.5654C98.8537 73.7024 97.2404 71.8132 95.6572 69.9111C92.4876 66.1005 89.423 62.2145 86.4424 58.2607C85.5364 57.0582 84.6379 55.8477 83.7471 54.6299C84.5823 53.8765 85.4177 53.1235 86.2529 52.3701C87.3692 53.3775 88.4821 54.3874 89.5898 55.3994C93.2326 58.7269 96.8326 62.0948 100.394 65.4766C102.171 67.1631 103.946 68.8613 105.708 70.5322C106.183 70.9817 106.661 71.4321 107.137 71.8779C108.016 70.0559 108.909 68.2379 109.809 66.4385C115.847 54.3623 122.436 42.5802 129.592 31.0615C130.378 29.799 131.196 28.4896 131.99 27.2451L135.01 28.7549ZM110.332 74.709C110.318 74.6987 110.32 74.6969 110.255 74.6562C110.304 74.692 110.334 74.7139 110.332 74.709Z" fill="black"/>
</svg>
