<svg width="118" height="139" viewBox="0 0 118 139" fill="none" xmlns="http://www.w3.org/2000/svg">
<path d="M117.822 54.5508H87.7637L78.8574 81.7334L96.5 84L109.473 91.1963H75.4248L57.7979 138.882L52 136.5L64.7559 91.1963H37.2021L21.0596 138.882L11.7822 135.635L26.9971 91.1963L10.5 88.5L0 81.7334H30.0586L39.3359 54.5508L19 50.5L8.53516 44.8096H42.583L57.7979 0L67.4463 3.06152L52.7881 44.8096H80.5273L100 1.5L105.669 3.06152L91.1963 44.8096L109.473 48.5L117.822 54.5508ZM77.373 54.5508H49.8193L40.4492 81.7334H68.0029L77.373 54.5508Z" fill="black"/>
</svg>
