<svg width="142" height="131" viewBox="0 0 142 131" fill="none" xmlns="http://www.w3.org/2000/svg">
<path d="M102.95 0C124.818 0.000103169 142 17.2053 142 39.2646C142 66.1784 117.86 88.2374 81.2949 121.576L71 131L60.7051 121.576C24.1403 88.2374 0.000205032 66.1784 0 39.2646C0 17.2053 17.1819 0.000102175 39.0498 0C51.4037 0 63.261 5.78228 71 14.8486C78.739 5.78229 90.5963 0 102.95 0ZM102.95 11.2988C94.308 11.3859 85.3684 15.6781 79.7471 22.3154L71 32.5625L62.2529 22.3154C56.6316 15.6781 47.692 11.3859 39.0498 11.2988C23.9865 10.7023 10.328 23.3796 10.0342 39.2646C9.26003 64.9171 37.4159 89.211 58.8086 112.159C60.611 114.015 62.3948 115.853 64.2139 117.729L64.2207 117.735C66.484 120.08 68.7432 122.43 71 124.782C73.2568 122.43 75.516 120.08 77.7793 117.735L77.7861 117.729C79.6052 115.853 81.389 114.015 83.1914 112.159C104.584 89.211 132.74 64.9171 131.966 39.2646C131.672 23.3796 118.013 10.7023 102.95 11.2988Z" fill="black"/>
</svg>
