<svg width="142" height="130" viewBox="0 0 142 130" fill="none" xmlns="http://www.w3.org/2000/svg">
<path d="M19.2083 130C14.8018 130 11.2295 126.228 11.2295 121.575V60.4898C11.2295 55.8366 14.8018 52.0643 19.2083 52.0643H122.933C127.34 52.0643 130.912 55.8366 130.912 60.4898V121.575C130.912 126.228 127.34 130 122.933 130H19.2083ZM120.685 60.4898C120.66 60.7009 120.669 60.9146 120.704 61.1254C120.698 60.9136 120.691 60.7017 120.685 60.4898ZM122.579 115.101C121.871 97.8337 121.268 80.5661 120.767 63.2986C88.2332 64.1977 55.6994 64.6644 23.1656 64.6995C23.1016 82.5556 22.9391 100.412 22.6786 118.268C49.8755 118.836 77.0729 119.669 104.27 120.774C110.463 121.026 116.656 121.292 122.849 121.571C122.758 119.415 122.667 117.258 122.579 115.101ZM19.6875 118.203C19.5291 118.186 19.3689 118.182 19.2083 118.193C19.3681 118.196 19.5278 118.2 19.6875 118.203ZM122.933 122.101C123.2 121.893 123.067 121.52 122.864 121.572C122.887 121.574 122.91 121.573 122.933 121.575V122.101Z" fill="black"/>
<path d="M73.7638 0.879983C72.4978 -0.375805 70.2743 -0.150948 68.6864 0.701024L68.3777 0.879983L65.4635 2.70043C62.5519 4.52508 59.6481 6.36176 56.7533 8.21011C39.1701 19.437 21.897 31.1006 4.93472 43.2018C-4.14079 50.0354 0.0862293 62.8589 11.2295 63.1423C31.1766 64.1825 51.1237 64.7026 71.0707 64.7026C91.0178 64.7026 110.965 64.1825 130.912 63.1423C142.055 63.4257 145.96 50.4888 137.207 43.2017C120.245 31.1006 102.971 19.4369 85.3882 8.2101C81.5285 5.74572 77.6534 3.30224 73.7638 0.879983ZM130.912 52.0643L11.2295 52.0644L71.0707 4.67104L130.912 52.0643Z" fill="black"/>
<path d="M51.309 125C49.5542 125 48.1316 123.498 48.1316 121.645L48.1316 85.8553C48.1316 84.0022 49.5542 82.5 51.309 82.5L69.3142 82.5C71.0691 82.5 72.4916 84.0022 72.4916 85.8553V121.645C72.4916 123.44 71.1565 124.906 69.4777 124.996L69.3142 125L51.309 125ZM68.1372 85.8553C68.1246 85.9666 68.13 86.079 68.1496 86.1895C68.1458 86.0781 68.141 85.9667 68.1372 85.8553ZM69.3142 123.113C70.0646 122.95 70.4165 122.151 70.243 121.645C70.2077 121.224 70.1731 120.802 70.1386 120.381C69.2336 109.353 68.5868 98.3242 68.191 87.2959C63.0811 87.4376 57.9713 87.5144 52.8615 87.5274C52.7515 98.8784 52.3751 110.229 51.7258 121.58C55.5258 121.857 59.326 122.168 63.126 122.515C65.1886 122.704 67.2516 122.903 69.3142 123.113ZM51.6824 121.577C51.5611 121.405 51.3484 121.435 51.309 121.549C51.4335 121.558 51.5579 121.568 51.6824 121.577Z" fill="black"/>
</svg>
