<svg width="139" height="139" viewBox="0 0 139 139" fill="none" xmlns="http://www.w3.org/2000/svg">
<path d="M134.5 69.5C134.002 62.6723 132.465 56.0348 129.98 49.8457C120.181 24.8091 94.4834 8.7479 69.5 10.125C37.9036 10.7651 11.3103 39.006 12 69.5C11.3103 99.994 37.9036 128.235 69.5 128.875C94.4834 130.252 120.181 114.191 129.98 89.1543C132.465 82.9652 134.002 76.3277 134.5 69.5ZM139 69.5C139 107.884 107.884 139 69.5 139C31.1162 139 0 107.884 0 69.5C0 31.1162 31.1162 0 69.5 0C107.884 0 139 31.1162 139 69.5Z" fill="black"/>
<path d="M90.5 69.5C90.1998 64.3557 89.6918 59.2388 88.9619 54.1855C87.4944 44.1168 85.1807 34.1269 81.5605 25.1533C79.7458 20.6869 77.5602 16.4563 75.0303 13.2314C72.5312 9.88669 69.5903 8.50098 69 8.875C68.3141 8.64981 64.5494 11.5699 62.1094 16.3916C59.5496 21.0946 57.6028 26.8068 56.1357 32.6416C53.21 44.4134 52.0148 56.9839 52 69.5C52.0148 82.0161 53.21 94.5866 56.1357 106.358C57.6028 112.193 59.5496 117.905 62.1094 122.608C64.5494 127.43 68.3141 130.35 69 130.125C69.5903 130.499 72.5312 129.113 75.0303 125.769C77.5602 122.544 79.7458 118.313 81.5605 113.847C85.1807 104.873 87.4944 94.8831 88.9619 84.8145C89.6918 79.7613 90.1998 74.6443 90.5 69.5ZM96 69.5C96 107.884 83.9117 139 69 139C54.0883 139 42 107.884 42 69.5C42 31.1162 54.0883 0 69 0C83.9117 0 96 31.1162 96 69.5Z" fill="black"/>
<path d="M47.2012 65C75.184 65 103.168 65.8548 131.15 67.5645C133.434 67.7039 135.717 67.8491 138 68V72C135.717 72.1509 133.434 72.2961 131.15 72.4355C103.168 74.1452 75.184 75 47.2012 75C34.0841 75 20.9666 74.2448 7.84961 72.7334C5.56637 72.4703 3.2832 72.1839 1 71.875V68.125C3.2832 67.8161 5.56637 67.5297 7.84961 67.2666C20.9666 65.7552 34.0841 65 47.2012 65Z" fill="black"/>
</svg>
