<svg width="140" height="140" viewBox="0 0 140 140" fill="none" xmlns="http://www.w3.org/2000/svg">
<path d="M83.2952 83.2952C84.5566 81.7623 85.5569 80.0694 86.2694 78.2889C89.1982 71.1295 87.0546 62.8322 81.7637 58.2363C75.2746 52.2097 64.5737 52.6583 58.7467 58.7468C52.6583 64.5737 52.2097 75.2747 58.2363 81.7638C62.8321 87.0546 71.1295 89.1983 78.2889 86.2695C80.0694 85.5569 81.7622 84.5567 83.2952 83.2952ZM85.7455 85.7455C84.2339 87.5308 82.4135 89.0949 80.3606 90.3349C72.1811 95.4532 60.2084 94.4298 52.7231 87.277C42.9047 78.6733 42.4561 61.4784 52.2126 52.2126C61.4784 42.4561 78.6733 42.9047 87.2769 52.7231C94.4297 60.2084 95.4531 72.1812 90.3348 80.3606C89.0949 82.4136 87.5307 84.234 85.7455 85.7455Z" fill="black"/>
<path d="M127.769 60.9147C132.511 60.7562 136.391 63.4465 138.605 66.27C139.126 66.9131 139.577 67.5652 140 68.2453C139.195 69.0731 138.389 69.9012 137.584 70.7289C136.96 70.3913 136.353 70.0932 135.74 69.8205C129.824 67.2213 127.067 69.0251 123.019 72.7985C120.334 75.4065 116.524 77.9174 111.825 78.0585C107.083 78.2172 103.203 75.5267 100.989 72.7032C100.469 72.0603 100.017 71.409 99.5941 70.7289C100.4 69.9011 101.205 69.0731 102.011 68.2453C102.634 68.5829 103.241 68.8801 103.854 69.1527C109.77 71.7518 112.527 69.9482 116.575 66.1748C119.26 63.5666 123.069 61.0556 127.769 60.9147Z" fill="black"/>
<path d="M28.1753 60.9147C32.9168 60.7562 36.7974 63.4465 39.0112 66.27C39.5316 66.9131 39.9825 67.5652 40.4059 68.2453C39.6005 69.0731 38.7949 69.9012 37.9895 70.7289C37.3662 70.3913 36.759 70.0932 36.1456 69.8205C30.2301 67.2213 27.4732 69.0251 23.4246 72.7985C20.7397 75.4065 16.9304 77.9174 12.2307 78.0585C7.48925 78.2172 3.60849 75.5267 1.39473 72.7032C0.874465 72.0603 0.423353 71.409 0 70.7289C0.805447 69.9011 1.61101 69.0731 2.41646 68.2453C3.03968 68.5829 3.64703 68.8801 4.26038 69.1527C10.1758 71.7518 12.9326 69.9482 16.9814 66.1748C19.6662 63.5666 23.4754 61.0556 28.1753 60.9147Z" fill="black"/>
<path d="M79.0853 127.769C79.2438 132.511 76.5535 136.391 73.73 138.605C73.0869 139.126 72.4348 139.577 71.7547 140C70.9269 139.195 70.0988 138.389 69.271 137.584C69.6087 136.96 69.9068 136.353 70.1795 135.74C72.7787 129.824 70.9749 127.067 67.2015 123.019C64.5935 120.334 62.0826 116.524 61.9415 111.825C61.7828 107.083 64.4733 103.203 67.2968 100.989C67.9397 100.469 68.591 100.017 69.271 99.5941C70.0989 100.4 70.9269 101.205 71.7547 102.011C71.4171 102.634 71.1199 103.241 70.8473 103.854C68.2482 109.77 70.0518 112.527 73.8252 116.575C76.4334 119.26 78.9444 123.069 79.0853 127.769Z" fill="black"/>
<path d="M79.0853 28.1753C79.2438 32.9168 76.5535 36.7974 73.73 39.0112C73.0869 39.5316 72.4348 39.9825 71.7547 40.4059C70.9269 39.6005 70.0988 38.7949 69.271 37.9895C69.6087 37.3662 69.9068 36.759 70.1795 36.1456C72.7787 30.2301 70.9749 27.4732 67.2015 23.4246C64.5935 20.7397 62.0826 16.9304 61.9415 12.2307C61.7828 7.48925 64.4733 3.60849 67.2968 1.39473C67.9397 0.874465 68.591 0.423353 69.271 0C70.0989 0.805447 70.9269 1.61101 71.7547 2.41646C71.4171 3.03968 71.1199 3.64703 70.8473 4.26038C68.2482 10.1758 70.0518 12.9326 73.8252 16.9814C76.4334 19.6662 78.9444 23.4754 79.0853 28.1753Z" fill="black"/>
<path d="M117.227 104.425C120.602 107.624 121.541 112.175 121.185 115.749C121.116 116.569 120.99 117.352 120.825 118.134C119.671 118.173 118.517 118.213 117.362 118.253C117.146 117.581 116.914 116.947 116.66 116.329C114.216 110.417 110.893 109.587 105.423 109.298C101.68 109.171 97.2698 108.131 93.9355 104.936C90.5603 101.738 89.6218 97.1875 89.9779 93.6136C90.0476 92.7927 90.1726 92.0099 90.338 91.2285C91.4923 91.1887 92.6466 91.1492 93.8008 91.1094C94.0167 91.7812 94.2497 92.4149 94.5034 93.0329C96.948 98.9444 100.27 99.7746 105.741 100.063C109.484 100.191 113.893 101.231 117.227 104.425Z" fill="black"/>
<path d="M46.9646 34.1628C50.34 37.3612 51.279 41.9122 50.923 45.4862C50.8532 46.307 50.7282 47.09 50.5628 47.8713C49.4085 47.9111 48.2543 47.9506 47.1 47.9904C46.8841 47.3187 46.6518 46.6842 46.3981 46.0662C43.9536 40.1547 40.6312 39.3245 35.1605 39.0358C31.4177 38.9085 27.0075 37.8685 23.6732 34.674C20.298 31.4758 19.3595 26.9251 19.7156 23.3512C19.7853 22.5304 19.9103 21.7476 20.0758 20.9662C21.23 20.9264 22.3843 20.8868 23.5385 20.8471C23.7544 21.5188 23.9874 22.1525 24.2411 22.7706C26.6857 28.6821 30.0077 29.5122 35.4788 29.801C39.2215 29.9283 43.6306 30.9683 46.9646 34.1628Z" fill="black"/>
<path d="M35.0637 93.9365C38.2619 90.561 42.8129 89.6218 46.3869 89.9779C47.2076 90.0476 47.99 90.1725 48.7713 90.3379C48.8111 91.4923 48.8508 92.6467 48.8906 93.8011C48.2188 94.017 47.5845 94.2493 46.9665 94.503C41.0552 96.9476 40.2255 100.27 39.9367 105.741C39.8094 109.484 38.7698 113.894 35.575 117.228C32.3766 120.603 27.8257 121.541 24.2518 121.185C23.4311 121.116 22.6487 120.991 21.8674 120.825C21.8276 119.671 21.7869 118.516 21.7471 117.362C22.4188 117.146 23.0533 116.914 23.6712 116.66C29.5829 114.216 30.4133 110.893 30.702 105.422C30.8293 101.68 31.8693 97.2706 35.0637 93.9365Z" fill="black"/>
<path d="M105.326 23.6741C108.524 20.2986 113.075 19.3595 116.649 19.7156C117.47 19.7853 118.252 19.9102 119.034 20.0755C119.073 21.2299 119.113 22.3844 119.153 23.5388C118.481 23.7547 117.847 23.9869 117.229 24.2407C111.317 26.6852 110.488 30.0076 110.199 35.4787C110.072 39.2214 109.032 43.6313 105.837 46.9654C102.639 50.3406 98.088 51.279 94.5141 50.9229C93.6934 50.8532 92.911 50.7283 92.1297 50.563C92.0899 49.4086 92.0492 48.2541 92.0094 47.0997C92.6811 46.8838 93.3155 46.6516 93.9335 46.3979C99.8451 43.9533 100.676 40.6308 100.964 35.1598C101.092 31.4172 102.132 27.0083 105.326 23.6741Z" fill="black"/>
</svg>
