<svg width="139" height="139" viewBox="0 0 139 139" fill="none" xmlns="http://www.w3.org/2000/svg">
<path d="M34.4267 12.6232C47.1044 3.3858 62.665 -1.02055 78.3036 0.199422C93.9423 1.41945 108.632 8.18473 119.723 19.2765C130.815 30.3684 137.581 45.0577 138.801 60.6964C140.021 76.335 135.614 91.8956 126.377 104.573C117.139 117.251 103.678 126.212 88.4178 129.843C73.1576 133.473 57.1024 131.534 43.1454 124.374L0 139L14.626 95.8546C7.46635 81.8976 5.52666 65.8424 9.15721 50.5822C12.7877 35.3221 21.7492 21.8607 34.4267 12.6232ZM77.454 11.0891C68.6908 10.7642 59.971 12.4207 51.995 15.8039C48.1793 17.4205 44.52 19.4076 41.081 21.7541C30.4569 28.9681 21.9478 39.8125 17.9052 52.6632C13.8091 65.4459 14.4101 80.1791 20.3564 92.9151C20.9958 94.0579 21.1008 96.6684 20.7256 97.9229C18.0277 105.025 15.4326 112.163 12.9951 119.354C11.9731 122.368 10.9703 125.39 9.98534 128.417C12.9442 127.261 15.8974 126.087 18.8437 124.894C26.018 121.988 33.1554 118.974 40.2558 115.851C41.9305 115.114 45.5181 115.784 47.2529 116.366C52.6518 120.456 59.0563 123.499 65.9276 125.138C72.8552 126.8 80.2466 127.031 87.4432 125.749C95.4694 124.333 103.234 121.031 109.882 116.179C115.112 112.371 119.682 107.666 123.343 102.361C131.717 90.3157 135.102 75.1902 133.065 61.1437C131.113 47.0565 123.87 34.2002 113.641 25.3586C103.434 16.4465 90.3944 11.5331 77.454 11.0891Z" fill="black"/>
<path d="M45.9961 79.9961C40.4732 79.9961 35.9961 75.5189 35.9961 69.9961C35.9961 64.4732 40.4732 59.9961 45.9961 59.9961C51.5189 59.9961 55.9961 64.4732 55.9961 69.9961C55.9961 75.5189 51.5189 79.9961 45.9961 79.9961Z" fill="black"/>
<path d="M74.9961 78.9961C70.0255 78.9961 65.9961 74.9666 65.9961 69.9961C65.9961 65.0255 70.0255 60.9961 74.9961 60.9961C79.9667 60.9961 83.9961 65.0255 83.9961 69.9961C83.9961 74.9666 79.9667 78.9961 74.9961 78.9961Z" fill="black"/>
<path d="M101.996 77.9961C97.5778 77.9961 93.9961 74.4144 93.9961 69.9961C93.9961 65.5778 97.5778 61.9961 101.996 61.9961C106.414 61.9961 109.996 65.5778 109.996 69.9961C109.996 74.4144 106.414 77.9961 101.996 77.9961Z" fill="black"/>
</svg>
