<svg width="96" height="141" viewBox="0 0 96 141" fill="none" xmlns="http://www.w3.org/2000/svg">
<path d="M0 113.5C0 98.3122 12.312 86.0002 27.4998 86.0002C42.6877 86.0002 54.9997 98.3122 54.9997 113.5C54.9997 128.688 42.6877 141 27.4998 141C12.312 141 0 128.688 0 113.5ZM27.4998 93.875C17.0665 94.464 8.79151 103.728 9.00042 113.5C8.79151 123.272 17.0665 132.536 27.4998 133.125C35.7344 133.853 44.6979 128.922 48.5673 120.347C49.5395 118.228 50.2006 115.922 50.5001 113.5C50.2006 111.078 49.5395 108.772 48.5673 106.653C44.6979 98.0781 35.7344 93.1465 27.4998 93.875Z" fill="black"/>
<path d="M57.0017 4.78705C67.6167 11.3765 77.8913 18.58 88.3327 25.4823L89.4348 26.0223L89.9767 27.6211C90.1183 28.3154 90.2611 29.0104 90.4049 29.7041C92.2431 38.57 94.0115 47.4556 95.7663 56.3447L96 57.0214L95.4607 57.7856C92.5371 60.9022 89.611 64.0173 86.6875 67.1341C84.4179 69.5539 82.1503 71.9754 79.886 74.3996C81.8071 71.6865 83.7233 68.9694 85.639 66.2518C87.9269 63.0063 90.2132 59.7591 92.5006 56.5132C89.6218 48.1849 86.757 39.8527 83.9585 31.5019C83.9127 31.3652 83.8661 31.2287 83.8201 31.0919C75.946 27.2478 67.9995 23.5335 60.1524 19.6404C60.1526 19.7453 60.1551 19.8501 60.1551 19.9549C60.1551 45.7083 58.1137 71.4617 56.8124 97.2151C56.5971 101.475 56.062 105.736 55.4766 109.996C55.0184 113.331 54.5296 116.665 54.1382 120C53.7469 116.665 53.2581 113.331 52.7999 109.996C52.2145 105.736 51.6794 101.475 51.4641 97.2151C50.1628 71.4617 48.1214 45.7083 48.1214 19.9549C48.1214 16.6202 48.1886 13.2855 48.3042 9.95091L48 0L57.0017 4.78705Z" fill="black"/>
<path d="M52 114C52 127.255 41.2548 138 28 138C14.7452 138 4 127.255 4 114C4 100.745 14.7452 90 28 90C41.2548 90 52 100.745 52 114Z" fill="black"/>
</svg>
