<svg width="116" height="140" viewBox="0 0 116 140" fill="none" xmlns="http://www.w3.org/2000/svg">
<path d="M58 0C63.9241 0 69.7905 1.17728 75.2637 3.46387C80.7365 5.75041 85.7096 9.10132 89.8984 13.3262C94.0873 17.5512 97.4097 22.5676 99.6768 28.0879C101.944 33.6082 103.111 39.5249 103.111 45.5V78L116 97.5V117H0V97.5L12.8887 78V45.5C12.8887 39.5249 14.0562 33.6082 16.3232 28.0879C18.5903 22.5676 21.9127 17.5512 26.1016 13.3262C30.2904 9.10133 35.2635 5.75041 40.7363 3.46387C46.2095 1.17728 52.0759 0 58 0ZM18.7012 45.5C19.1803 52.318 19.6361 59.1361 20.0674 65.9541C20.3214 69.9694 20.5664 73.9847 20.8037 78L19.4922 82.3643C16.1207 88.185 12.7277 93.992 9.31738 99.7871C9.42919 102.01 9.5388 104.233 9.64551 106.456C40.7637 105.178 71.8818 104.399 103 104.119C103 104.024 103 103.929 103 103.834C103 103.015 103.001 102.195 103.002 101.376C99.4478 95.9573 95.9106 90.5275 92.3926 85.085L90.2627 78C90.3733 67.1667 90.5448 56.3333 90.7764 45.5C90.9054 41.1469 90.1941 36.7442 88.6709 32.6084C87.1545 28.481 84.8298 24.6214 81.8359 21.3203C78.8547 18.0279 75.2093 15.293 71.1377 13.3389C67.0776 11.386 62.5949 10.2132 58 9.94434C53.4062 9.67153 48.7034 10.3039 44.2363 11.8398C39.7585 13.3751 35.521 15.8172 31.8545 19.0303C28.7103 21.7817 25.9862 25.0959 23.8506 28.8164C23.4866 29.4501 23.139 30.0958 22.8096 30.752C20.5398 35.2681 19.1176 40.2997 18.7012 45.5Z" fill="black"/>
<path d="M80.1111 117H35C35 119.993 35.5834 122.957 36.7169 125.722C37.8505 128.487 39.5119 130.999 41.6064 133.115C43.7008 135.232 46.1874 136.911 48.9239 138.056C51.6605 139.201 54.5935 139.791 57.5556 139.791C60.5176 139.791 63.4506 139.201 66.1872 138.056C68.9238 136.911 71.4103 135.232 73.5047 133.115C75.5992 130.999 77.2607 128.487 78.3942 125.722C79.5277 122.957 80.1111 119.993 80.1111 117Z" fill="black"/>
</svg>
