<svg width="104" height="146" viewBox="0 0 104 146" fill="none" xmlns="http://www.w3.org/2000/svg">
<path d="M37.5727 65.4273C39.2135 66.818 41.0369 67.9317 42.9648 68.7346C50.7115 72.0364 59.8757 69.8236 65.0159 64.0159C71.7564 56.9055 71.343 44.9547 64.5454 38.4546C58.0453 31.657 46.0945 31.2436 38.9841 37.9841C33.1764 43.1243 30.9636 52.2885 34.2654 60.0352C35.0683 61.9631 36.182 63.7865 37.5727 65.4273ZM36.4437 66.5564C27.8521 57.9648 27.8521 44.0352 36.4437 35.4436C45.0352 26.8521 58.9648 26.8521 67.5564 35.4436C76.1479 44.0352 76.1479 57.9648 67.5564 66.5564C58.9648 75.1479 45.0352 75.1479 36.4437 66.5564Z" fill="black"/>
<path d="M95 51.5293C95.0027 46.2609 94.0199 41.0367 92.0996 36.1582C85.9714 20.1049 69.2785 8.76569 52 9C29.4924 8.45041 7.26026 27.1705 6.17578 51.5293C5.72751 74.8521 20.032 99.2207 34.9717 119.746C40.1027 126.622 45.8122 133.215 51.7021 139.348C53.3367 137.305 54.9713 135.208 56.5488 133.155C71.8862 112.905 86.3066 90.7642 92.8896 67.7666C94.4022 62.1727 95.2655 56.5613 95 51.5293ZM104 51.5293C104 90.1764 52 146 52 146C52 146 0 90.1764 0 51.5293C6.25779e-05 23.1023 23.3134 0 52 0C80.6866 0 104 23.1023 104 51.5293Z" fill="black"/>
</svg>
