<svg width="132" height="141" viewBox="0 0 132 141" fill="none" xmlns="http://www.w3.org/2000/svg">
<path d="M33.6813 90.373C48.7252 90.373 83.7691 91.6015 98.8131 92.2844C102.024 92.4118 105.197 92.9665 108.234 93.9121C113.681 95.6024 118.662 98.6467 122.59 102.681C128.715 108.914 132.172 117.564 131.993 126.165C131.953 128.309 131.913 130.453 131.872 132.597C131.818 135.398 131.761 138.199 131.702 141H126.101C126.042 138.199 125.986 135.398 125.931 132.597C125.89 130.453 125.85 128.309 125.81 126.165C125.69 119.188 122.63 112.383 117.588 107.686C114.354 104.643 110.341 102.463 106.074 101.399C103.696 100.802 101.236 100.573 98.8131 100.701C83.7691 101.384 48.7252 102.612 33.6813 102.613C27.4138 102.602 21.1469 104.852 16.2607 109.04C11.3897 113.183 7.91479 119.268 7.01056 126.165C6.75894 128.309 6.48937 130.453 6.20315 132.597C5.82929 135.398 5.42602 138.199 4.99313 141H2.19236C1.75947 138.199 1.3562 135.398 0.98234 132.597C0.696116 130.453 0.42655 128.309 0.174931 126.165C-0.787746 117.484 2.25317 108.113 8.54988 101.326C14.8053 94.4512 24.1997 90.3296 33.6813 90.373Z" fill="black"/>
<path d="M92.4213 43.3736C92.9115 40.5744 92.9599 37.759 92.5846 35.0352C91.1586 24.0388 82.5167 15.1574 72.513 13.183C59.9671 10.2647 46.7151 18.5497 43.7929 30.4324C40.3416 42.1742 47.6473 55.9302 59.9814 59.6331C69.6389 62.8909 81.5941 59.491 88.3649 50.676C90.0611 48.5035 91.4366 46.0412 92.4213 43.3736ZM98.5083 44.9935C97.8531 48.4132 96.6344 51.7698 94.8785 54.8752C88.0085 67.4761 71.7744 74.891 56.8553 71.2204C37.8605 67.3915 24.6205 45.8036 30.2662 26.8326C34.9274 7.59953 57.2615 -4.5212 75.6391 1.59564C90.4073 5.82552 100.734 20.3088 100.339 34.6331C100.297 38.1945 99.6624 41.7066 98.5083 44.9935Z" fill="black"/>
</svg>
