<svg width="141" height="141" viewBox="0 0 141 141" fill="none" xmlns="http://www.w3.org/2000/svg">
<path d="M102.659 102.659C106.578 98.0346 109.717 92.8961 111.979 87.4627C121.284 65.6312 115.048 39.8048 98.6812 25.3188C78.6426 6.32295 44.9633 7.48799 26.6447 26.6447C7.48798 44.9633 6.32296 78.6427 25.3188 98.6812C39.8047 115.048 65.6313 121.284 87.4627 111.979C92.8961 109.717 98.0346 106.578 102.659 102.659ZM105.841 105.841C81.6281 130.053 42.3719 130.053 18.1594 105.841C-6.05313 81.6281 -6.05313 42.3719 18.1594 18.1594C42.3719 -6.05313 81.6281 -6.05313 105.841 18.1594C130.053 42.3719 130.053 81.6281 105.841 105.841Z" fill="black"/>
<path d="M72.6285 57.629C74.0458 55.9473 75.1792 54.0804 75.9941 52.1089C79.3448 44.1861 77.061 34.8502 71.1376 29.6258C63.8828 22.7749 51.7323 23.2117 45.1224 30.123C38.2115 36.7329 37.7751 48.8827 44.6259 56.1374C49.8504 62.0609 59.1862 64.3448 67.109 60.994C69.0805 60.1791 70.9469 59.0462 72.6285 57.629ZM73.406 59.2283C64.5742 67.6239 50.6075 67.4884 41.9412 58.8222C33.1374 50.0185 33.1369 35.7448 41.9405 26.941C50.7443 18.1372 65.0186 18.1372 73.8224 26.941C82.626 35.7448 82.6255 50.0185 73.8217 58.8222L73.406 59.2283Z" fill="black" fill-opacity="0.5"/>
<path d="M138.988 140.416C138.607 140.425 138.238 140.289 137.939 140.061C137.261 139.539 136.584 139.015 135.911 138.488C126.485 131.115 117.572 123.228 109.172 114.828C106.772 112.428 104.748 109.651 103.103 106.497C102.691 105.709 102.304 104.896 101.939 104.061L104.061 101.939C104.896 102.304 105.709 102.691 106.497 103.103C109.651 104.748 112.428 106.772 114.828 109.172C123.228 117.572 131.115 126.485 138.488 135.911C139.015 136.584 139.539 137.261 140.061 137.939C140.289 138.238 140.425 138.607 140.416 138.988C140.407 139.37 140.257 139.73 139.993 139.993C139.73 140.257 139.37 140.407 138.988 140.416Z" fill="black"/>
</svg>
