<svg width="142" height="142" viewBox="0 0 142 142" fill="none" xmlns="http://www.w3.org/2000/svg">
<path d="M139.432 6.54077C123.54 46.9825 108.584 87.7937 94.5689 128.972L88.9662 142L83.4115 129.373C77.6239 118.589 71.7629 107.839 65.8313 97.1242C63.3424 92.6281 60.8275 88.1437 58.3132 83.6597C53.8308 81.1476 49.3457 78.6362 44.8512 76.1494C34.1337 70.2196 23.3804 64.3597 12.594 58.5737L0 52.0569L12.9951 47.4191C54.1842 33.4071 95.0055 18.4551 135.458 2.56724L142 0L139.432 6.54077ZM131.118 10.8734C97.3487 24.2347 63.8357 38.2475 30.5812 52.9186C37.6368 55.8583 44.7004 58.784 51.7827 61.6676C57.5235 64.0049 63.2753 66.3268 69.0337 68.6273L71.4759 69.6027L73.3614 72.9539L80.3168 90.1945C83.2 97.2722 86.1228 104.334 89.062 111.385C103.737 78.1385 117.753 44.6341 131.118 10.8734Z" fill="black"/>
<path d="M102.348 41.2994C92.4203 55.0992 82.4909 68.9008 72.5629 82.7006C72.0114 83.4672 71.4567 84.2334 70.9052 85L58 72.0948C58.7666 71.5433 59.5328 70.9886 60.2994 70.4371C74.0992 60.5091 87.9008 50.5797 101.701 40.6518C102.467 40.1006 103.234 39.5511 104 39C103.449 39.7661 102.899 40.5333 102.348 41.2994Z" fill="black"/>
</svg>
