<svg width="143" height="111" viewBox="0 0 143 111" fill="none" xmlns="http://www.w3.org/2000/svg">
<path d="M83.757 55.4967C83.757 62.3007 78.2693 67.8165 71.5 67.8165C64.7306 67.8165 59.243 62.3007 59.243 55.4967C59.243 48.6926 64.7306 43.1768 71.5 43.1768C78.2693 43.1768 83.757 48.6926 83.757 55.4967Z" fill="black"/>
<path d="M59.6752 24.8388C58.3847 25.5353 57.1339 26.2752 55.9287 27.0565C48.6487 31.7618 43.0106 38.0488 40.2058 45.0537C38.8153 48.4909 38.1128 52.0268 38.1337 55.5662C38.1082 66.3466 45.2584 77.0799 56.1827 83.9568C57.3906 84.7283 58.6422 85.4591 59.9465 86.1505C59.4774 87.6165 59.0086 89.0826 58.5394 90.5485C56.9454 90.3027 55.3656 89.9724 53.7981 89.5486C39.8001 86.102 25.8728 72.84 25.8767 55.6343C25.8342 50.1593 27.2621 44.7123 29.7575 40.0247C34.8542 30.3537 44.0929 24.0621 53.5068 21.4821C55.0744 21.0458 56.6558 20.702 58.2402 20.4488C58.7185 21.9118 59.1968 23.3758 59.6752 24.8388Z" fill="black"/>
<path d="M39.4065 4.22157C37.6001 5.31053 35.8754 6.50395 34.2382 7.78678C24.8191 15.1688 18.4378 25.3748 15.0946 36.3579C13.1828 42.6088 12.2366 49.097 12.2578 55.5889C12.3244 73.43 19.6699 91.734 34.5321 103.241C36.1808 104.511 37.9106 105.687 39.7323 106.765C39.1205 108.177 38.5087 109.588 37.8969 111C35.6844 110.311 33.5185 109.462 31.4054 108.449C12.085 99.3397 -0.11097 77.3494 0.000761214 55.629C-0.028578 47.7383 1.44188 39.8375 4.30721 32.524C9.27625 19.6399 18.9407 8.47775 31.0689 2.60406C33.171 1.57621 35.3355 0.70413 37.5378 0C38.1608 1.40694 38.7835 2.81463 39.4065 4.22157Z" fill="black"/>
<path d="M83.3247 24.8388C84.6152 25.5353 85.866 26.2752 87.0712 27.0565C94.3512 31.7618 99.9893 38.0488 102.794 45.0537C104.185 48.4909 104.887 52.0268 104.866 55.5662C104.892 66.3466 97.7415 77.0799 86.8172 83.9568C85.6093 84.7283 84.3577 85.4591 83.0534 86.1505C83.5226 87.6165 83.9914 89.0826 84.4605 90.5485C86.0545 90.3027 87.6343 89.9724 89.2019 89.5486C103.2 86.102 117.127 72.84 117.123 55.6343C117.166 50.1593 115.738 44.7123 113.242 40.0247C108.146 30.3537 98.907 24.0621 89.4931 21.4821C87.9255 21.0458 86.3441 20.702 84.7598 20.4488C84.2814 21.9118 83.8031 23.3758 83.3247 24.8388Z" fill="black"/>
<path d="M103.594 4.22157C105.4 5.31053 107.125 6.50395 108.762 7.78678C118.181 15.1688 124.562 25.3748 127.905 36.3579C129.817 42.6088 130.763 49.097 130.742 55.5889C130.676 73.43 123.33 91.734 108.468 103.241C106.819 104.511 105.089 105.687 103.268 106.765C103.879 108.177 104.491 109.588 105.103 111C107.316 110.311 109.482 109.462 111.595 108.449C130.915 99.3397 143.111 77.3494 142.999 55.629C143.029 47.7383 141.558 39.8375 138.693 32.524C133.724 19.6399 124.059 8.47775 111.931 2.60406C109.829 1.57621 107.664 0.70413 105.462 0C104.839 1.40694 104.216 2.81463 103.594 4.22157Z" fill="black"/>
</svg>
