<svg width="140" height="140" viewBox="0 0 140 140" fill="none" xmlns="http://www.w3.org/2000/svg">
<path d="M20.5025 20.5025C47.8392 -6.83418 92.16 -6.83418 119.497 20.5025C146.833 47.8392 146.833 92.16 119.497 119.497C92.16 146.833 47.8392 146.833 20.5025 119.497C-6.83418 92.16 -6.83418 47.8392 20.5025 20.5025ZM112.337 27.6617C89.3591 5.57937 50.2465 6.74475 28.9879 28.9879C6.74475 50.2465 5.57937 89.3591 27.6617 112.337C44.501 131.129 74.2759 137.981 99.0953 127.109C105.275 124.466 111.098 120.828 116.315 116.315C120.828 111.098 124.466 105.275 127.109 99.0953C137.981 74.2759 131.129 44.501 112.337 27.6617Z" fill="black"/>
<path d="M57.9792 57.9792C64.6182 51.3403 75.3818 51.3403 82.0208 57.9792C88.6597 64.6182 88.6597 75.3818 82.0208 82.0208C75.3818 88.6597 64.6182 88.6597 57.9792 82.0208C51.3403 75.3818 51.3403 64.6182 57.9792 57.9792ZM80.2821 59.7179C74.7016 54.355 65.2028 54.638 60.04 60.04C54.638 65.2028 54.355 74.7016 59.7179 80.2821C63.8074 84.8457 71.0385 86.51 77.0661 83.8695C78.567 83.2276 79.9811 82.3441 81.2481 81.2481C82.3441 79.9811 83.2276 78.567 83.8695 77.0661C86.51 71.0385 84.8457 63.8074 80.2821 59.7179Z" fill="black"/>
<path d="M73 70C73 71.6569 71.6569 73 70 73C68.3431 73 67 71.6569 67 70C67 68.3431 68.3431 67 70 67C71.6569 67 73 68.3431 73 70Z" fill="black"/>
<path d="M22.667 70C22.4886 57.5916 27.5722 45.1764 36.4121 36.4121C45.1764 27.5721 57.5917 22.4886 70 22.667C91.3049 22.4897 110.998 38.791 115.016 59.1904C115.775 62.7465 116.101 66.3842 116 70C115.901 66.3841 115.385 62.7935 114.462 59.3232C109.43 39.417 90.0444 24.8116 70 25.333C58.2811 25.389 46.7546 30.2538 38.5342 38.5342C30.2539 46.7546 25.389 58.281 25.333 70C24.8116 90.0444 39.4171 109.43 59.3233 114.462C62.7935 115.385 66.3842 115.901 70 116C66.3843 116.101 62.7466 115.775 59.1905 115.016C38.791 110.998 22.4897 91.3049 22.667 70Z" fill="black" fill-opacity="0.5"/>
<path d="M36.667 70C36.5072 61.2632 40.0768 52.4912 46.3115 46.3115C52.4912 40.0768 61.2632 36.5072 70 36.667C85.0126 36.596 98.7591 48.1941 101.399 62.46C101.902 64.9468 102.1 67.4847 102 70C101.9 67.4846 101.513 64.9938 100.846 62.5928C97.1911 48.82 83.7521 38.9179 70 39.333C61.9526 39.4076 54.0694 42.7585 48.4336 48.4336C42.7585 54.0694 39.4076 61.9526 39.333 70C38.9179 83.7521 48.8201 97.191 62.5928 100.846C64.9938 101.513 67.4846 101.9 70 102C67.4847 102.1 64.9469 101.902 62.46 101.399C48.1941 98.7591 36.596 85.0126 36.667 70Z" fill="black" fill-opacity="0.5"/>
</svg>
